<svg width="64" height="64" viewBox="0 0 100 100" fill="none" xmlns="http://www.w3.org/2000/svg">
  <circle cx="50" cy="50" r="46" stroke="#1a3a5c" stroke-width="1.5" opacity="0.3" />
  <circle cx="50" cy="50" r="42" stroke="#1a3a5c" stroke-width="1" opacity="0.15" />
  <line x1="50" y1="12" x2="50" y2="88" stroke="#1a3a5c" stroke-width="0.5" opacity="0.1" />
  <line x1="12" y1="50" x2="88" y2="50" stroke="#1a3a5c" stroke-width="0.5" opacity="0.1" />
  <line x1="50" y1="7" x2="50" y2="13" stroke="#1a3a5c" stroke-width="1.5" opacity="0.5" />
  <line x1="50" y1="87" x2="50" y2="93" stroke="#1a3a5c" stroke-width="1.5" opacity="0.5" />
  <line x1="7" y1="50" x2="13" y2="50" stroke="#1a3a5c" stroke-width="1.5" opacity="0.5" />
  <line x1="87" y1="50" x2="93" y2="50" stroke="#1a3a5c" stroke-width="1.5" opacity="0.5" />
  <polygon points="50,14 44,48 56,48" fill="hsl(38, 80%, 52%)" />
  <polygon points="50,86 44,52 56,52" fill="#1a3a5c" opacity="0.25" />
  <polygon points="86,50 52,44 52,56" fill="#1a3a5c" opacity="0.15" />
  <polygon points="14,50 48,44 48,56" fill="#1a3a5c" opacity="0.15" />
  <circle cx="50" cy="50" r="5" fill="hsl(38, 80%, 52%)" />
  <circle cx="50" cy="50" r="3" fill="hsl(38, 80%, 38%)" />
</svg>